HIERARCHY
ROOT Hips
{
	OFFSET 0.000000 71.427986 0.000000
	CHANNELS 6 Xposition Yposition Zposition Xrotation Yrotation Zrotation
	JOINT Pelvis
	{
		OFFSET 0.000000 0.000000 0.000000
		CHANNELS 3 Xrotation Yrotation Zrotation
		JOINT LeftUpLeg
		{
			OFFSET 6.797100 -2.508499 -1.318700
			CHANNELS 3 Xrotation Yrotation Zrotation
			JOINT LeftLeg
			{
				OFFSET 0.069008 -29.241863 0.690200
				CHANNELS 3 Xrotation Yrotation Zrotation
				JOINT LeftFoot
				{
					OFFSET -0.069008 -29.568123 -0.266800
					CHANNELS 3 Xrotation Yrotation Zrotation
					JOINT LeftToeBase
					{
						OFFSET 3.145500 -8.631000 16.059900
						CHANNELS 3 Xrotation Yrotation Zrotation
						End Site
						{
							OFFSET 0.000000 18.501587 0.000000
						}
					}
				}
			}
			JOINT Left_ShortSleeve
			{
				OFFSET 0.265923 -10.480953 1.153800
				CHANNELS 3 Xrotation Yrotation Zrotation
				End Site
				{
					OFFSET 1.725763 19.823879 0.000000
				}
			}
		}
		JOINT RightUpLeg
		{
			OFFSET -6.797100 -2.508499 -1.318700
			CHANNELS 3 Xrotation Yrotation Zrotation
			JOINT RightLeg
			{
				OFFSET -0.082453 -29.241932 0.688000
				CHANNELS 3 Xrotation Yrotation Zrotation
				JOINT RightFoot
				{
					OFFSET 0.082453 -29.568058 -0.264600
					CHANNELS 3 Xrotation Yrotation Zrotation
					JOINT RightToeBase
					{
						OFFSET -3.115300 -8.682800 16.113400
						CHANNELS 3 Xrotation Yrotation Zrotation
						End Site
						{
							OFFSET 0.000000 18.567114 0.000000
						}
					}
				}
			}
			JOINT Right_ShortSleeve
			{
				OFFSET -0.265923 -10.480953 1.153800
				CHANNELS 3 Xrotation Yrotation Zrotation
				End Site
				{
					OFFSET -1.725766 19.823910 0.000000
				}
			}
		}
	}
	JOINT Spine
	{
		OFFSET 0.000000 13.368103 0.470500
		CHANNELS 3 Xrotation Yrotation Zrotation
		JOINT Spine1
		{
			OFFSET 0.147000 13.837402 0.538800
			CHANNELS 3 Xrotation Yrotation Zrotation
			JOINT Spine2
			{
				OFFSET 0.168000 16.242897 -1.435500
				CHANNELS 3 Xrotation Yrotation Zrotation
				JOINT Neck
				{
					OFFSET 0.217200 18.631500 -1.679100
					CHANNELS 3 Xrotation Yrotation Zrotation
					JOINT Head
					{
						OFFSET 0.000000 6.599396 1.385900
						CHANNELS 3 Xrotation Yrotation Zrotation
						JOINT Hat
						{
							OFFSET -0.532200 27.220596 -10.096100
							CHANNELS 3 Xrotation Yrotation Zrotation
							End Site
							{
								OFFSET 0.000000 22.029861 0.000000
							}
						}
						JOINT HairD
						{
							OFFSET -10.777400 17.437393 -1.325900
							CHANNELS 3 Xrotation Yrotation Zrotation
							JOINT HairD1
							{
								OFFSET -3.290299 -11.051193 1.062200
								CHANNELS 3 Xrotation Yrotation Zrotation
								End Site
								{
									OFFSET 0.000000 11.579437 0.000000
								}
							}
						}
						JOINT HairB
						{
							OFFSET -10.777400 17.437393 1.467900
							CHANNELS 3 Xrotation Yrotation Zrotation
							JOINT HairB1
							{
								OFFSET -1.561200 -12.956299 3.590200
								CHANNELS 3 Xrotation Yrotation Zrotation
								End Site
								{
									OFFSET 0.000000 13.534866 0.000000
								}
							}
						}
						JOINT HairA
						{
							OFFSET 9.713100 17.437393 1.467900
							CHANNELS 3 Xrotation Yrotation Zrotation
							JOINT HairA1
							{
								OFFSET 1.561200 -12.956299 3.590200
								CHANNELS 3 Xrotation Yrotation Zrotation
								End Site
								{
									OFFSET 0.000000 13.534866 0.000000
								}
							}
						}
						JOINT HairC
						{
							OFFSET 9.713100 17.437393 -1.325900
							CHANNELS 3 Xrotation Yrotation Zrotation
							JOINT HairC1
							{
								OFFSET 3.290300 -11.051193 1.062200
								CHANNELS 3 Xrotation Yrotation Zrotation
								End Site
								{
									OFFSET 0.000000 11.579437 0.000000
								}
							}
						}
					}
				}
				JOINT LeftShoulder
				{
					OFFSET 5.101800 15.108002 -2.763700
					CHANNELS 3 Xrotation Yrotation Zrotation
					JOINT LeftArm
					{
						OFFSET 9.825497 2.506317 -1.597400
						CHANNELS 3 Xrotation Yrotation Zrotation
						JOINT LeftForeArm
						{
							OFFSET 21.966244 0.000000 0.000000
							CHANNELS 3 Xrotation Yrotation Zrotation
							JOINT LeftHand
							{
								OFFSET 33.879036 0.000000 0.000000
								CHANNELS 3 Xrotation Yrotation Zrotation
								JOINT LeftHandThumb1
								{
									OFFSET 6.715286 -2.359680 3.363841
									CHANNELS 3 Xrotation Yrotation Zrotation
									JOINT LeftHandThumb2
									{
										OFFSET 2.507072 -1.447464 1.447461
										CHANNELS 3 Xrotation Yrotation Zrotation
										JOINT LeftHandThumb3
										{
											OFFSET 2.898338 -1.673355 1.673357
											CHANNELS 3 Xrotation Yrotation Zrotation
											End Site
											{
												OFFSET -0.295959 3.727692 -0.131651
											}
										}
									}
								}
								JOINT LeftHandIndex1
								{
									OFFSET 14.190811 -0.254547 3.840278
									CHANNELS 3 Xrotation Yrotation Zrotation
									JOINT LeftHandIndex2
									{
										OFFSET 3.551727 0.000000 -0.000000
										CHANNELS 3 Xrotation Yrotation Zrotation
										JOINT LeftHandIndex3
										{
											OFFSET 2.894196 0.000000 0.000000
											CHANNELS 3 Xrotation Yrotation Zrotation
											End Site
											{
												OFFSET -1.000603 2.690872 0.366626
											}
										}
									}
								}
								JOINT LeftHandMiddle1
								{
									OFFSET 13.776489 0.000000 0.000000
									CHANNELS 3 Xrotation Yrotation Zrotation
									JOINT LeftHandMiddle2
									{
										OFFSET 3.438232 0.000000 0.000000
										CHANNELS 3 Xrotation Yrotation Zrotation
										JOINT LeftHandMiddle3
										{
											OFFSET 3.691551 0.000000 0.000000
											CHANNELS 3 Xrotation Yrotation Zrotation
											End Site
											{
												OFFSET -1.082298 3.499527 0.457670
											}
										}
									}
								}
								JOINT LeftHandRing1
								{
									OFFSET 13.966164 -0.268127 -3.067488
									CHANNELS 3 Xrotation Yrotation Zrotation
									JOINT LeftHandRing2
									{
										OFFSET 3.162567 0.000000 0.000000
										CHANNELS 3 Xrotation Yrotation Zrotation
										JOINT LeftHandRing3
										{
											OFFSET 3.324348 0.000000 0.000000
											CHANNELS 3 Xrotation Yrotation Zrotation
											End Site
											{
												OFFSET -0.861900 3.184998 0.405154
											}
										}
									}
								}
								JOINT LeftHandPinky1
								{
									OFFSET 13.131393 -0.168503 -5.746925
									CHANNELS 3 Xrotation Yrotation Zrotation
									JOINT LeftHandPinky2
									{
										OFFSET 2.849182 0.000000 0.000000
										CHANNELS 3 Xrotation Yrotation Zrotation
										JOINT LeftHandPinky3
										{
											OFFSET 2.805038 0.000000 0.000000
											CHANNELS 3 Xrotation Yrotation Zrotation
											End Site
											{
												OFFSET -0.882500 2.642609 0.325652
											}
										}
									}
								}
							}
							JOINT Left_Sleeve
							{
								OFFSET 6.592125 -0.646545 0.805568
								CHANNELS 3 Xrotation Yrotation Zrotation
								End Site
								{
									OFFSET -0.000179 20.275787 -0.000000
								}
							}
						}
					}
				}
				JOINT RightShoulder
				{
					OFFSET -5.731700 15.108002 -2.763700
					CHANNELS 3 Xrotation Yrotation Zrotation
					JOINT RightArm
					{
						OFFSET -9.825497 2.506317 -1.597400
						CHANNELS 3 Xrotation Yrotation Zrotation
						JOINT RightForeArm
						{
							OFFSET -21.966242 0.000000 0.000000
							CHANNELS 3 Xrotation Yrotation Zrotation
							JOINT RightHand
							{
								OFFSET -33.879032 0.000000 0.000000
								CHANNELS 3 Xrotation Yrotation Zrotation
								JOINT RightHandThumb1
								{
									OFFSET -6.715286 -2.359680 3.363841
									CHANNELS 3 Xrotation Yrotation Zrotation
									JOINT RightHandThumb2
									{
										OFFSET -2.507072 -1.447464 1.447461
										CHANNELS 3 Xrotation Yrotation Zrotation
										JOINT RightHandThumb3
										{
											OFFSET -2.898338 -1.673355 1.673357
											CHANNELS 3 Xrotation Yrotation Zrotation
											End Site
											{
												OFFSET 0.295959 3.727692 -0.131651
											}
										}
									}
								}
								JOINT RightHandIndex1
								{
									OFFSET -14.190811 -0.254547 3.840278
									CHANNELS 3 Xrotation Yrotation Zrotation
									JOINT RightHandIndex2
									{
										OFFSET -3.551727 0.000000 -0.000000
										CHANNELS 3 Xrotation Yrotation Zrotation
										JOINT RightHandIndex3
										{
											OFFSET -2.894196 0.000000 0.000000
											CHANNELS 3 Xrotation Yrotation Zrotation
											End Site
											{
												OFFSET 1.000603 2.690872 0.366626
											}
										}
									}
								}
								JOINT RightHandMiddle1
								{
									OFFSET -13.776489 0.000000 0.000000
									CHANNELS 3 Xrotation Yrotation Zrotation
									JOINT RightHandMiddle2
									{
										OFFSET -3.438232 0.000000 0.000000
										CHANNELS 3 Xrotation Yrotation Zrotation
										JOINT RightHandMiddle3
										{
											OFFSET -3.691551 0.000000 0.000000
											CHANNELS 3 Xrotation Yrotation Zrotation
											End Site
											{
												OFFSET 1.082298 3.499527 0.457670
											}
										}
									}
								}
								JOINT RightHandRing1
								{
									OFFSET -13.966164 -0.268127 -3.067488
									CHANNELS 3 Xrotation Yrotation Zrotation
									JOINT RightHandRing2
									{
										OFFSET -3.162567 0.000000 0.000000
										CHANNELS 3 Xrotation Yrotation Zrotation
										JOINT RightHandRing3
										{
											OFFSET -3.324348 0.000000 0.000000
											CHANNELS 3 Xrotation Yrotation Zrotation
											End Site
											{
												OFFSET 0.861900 3.184998 0.405154
											}
										}
									}
								}
								JOINT RightHandPinky1
								{
									OFFSET -13.131393 -0.168503 -5.746925
									CHANNELS 3 Xrotation Yrotation Zrotation
									JOINT RightHandPinky2
									{
										OFFSET -2.849182 0.000000 0.000000
										CHANNELS 3 Xrotation Yrotation Zrotation
										JOINT RightHandPinky3
										{
											OFFSET -2.805038 0.000000 0.000000
											CHANNELS 3 Xrotation Yrotation Zrotation
											End Site
											{
												OFFSET 0.882500 2.642609 0.325652
											}
										}
									}
								}
							}
							JOINT Right_Sleeve
							{
								OFFSET -6.592125 -0.646545 0.805568
								CHANNELS 3 Xrotation Yrotation Zrotation
								End Site
								{
									OFFSET 0.000179 20.275787 -0.000000
								}
							}
						}
					}
				}
				JOINT Bind_Right_JacketString
				{
					OFFSET -3.534800 11.969597 7.200700
					CHANNELS 3 Xrotation Yrotation Zrotation
					JOINT Bind_Right_JacketString1
					{
						OFFSET -0.319900 -6.102600 2.794100
						CHANNELS 3 Xrotation Yrotation Zrotation
						End Site
						{
							OFFSET 0.000000 6.719452 0.000000
						}
					}
				}
				JOINT Bind_Left_JacketString
				{
					OFFSET 2.904800 11.969597 7.200700
					CHANNELS 3 Xrotation Yrotation Zrotation
					JOINT Bind_Left_JacketString1
					{
						OFFSET 0.364800 -5.904503 3.186800
						CHANNELS 3 Xrotation Yrotation Zrotation
						End Site
						{
							OFFSET 0.000000 6.719513 0.000000
						}
					}
				}
				JOINT HairE
				{
					OFFSET 5.915200 17.612701 -11.592200
					CHANNELS 3 Xrotation Yrotation Zrotation
					JOINT HairE1
					{
						OFFSET 0.289200 -7.171898 -1.284500
						CHANNELS 3 Xrotation Yrotation Zrotation
						End Site
						{
							OFFSET 0.000000 7.291756 0.000000
						}
					}
				}
				JOINT HairF
				{
					OFFSET -0.864800 17.612701 -11.592200
					CHANNELS 3 Xrotation Yrotation Zrotation
					JOINT HairF1
					{
						OFFSET 0.000000 -14.087097 -2.127501
						CHANNELS 3 Xrotation Yrotation Zrotation
						End Site
						{
							OFFSET 0.000000 14.246841 0.000000
						}
					}
				}
				JOINT HairG
				{
					OFFSET -8.087700 17.612701 -11.592200
					CHANNELS 3 Xrotation Yrotation Zrotation
					JOINT HairG1
					{
						OFFSET -0.293600 -6.081398 -0.910100
						CHANNELS 3 Xrotation Yrotation Zrotation
						End Site
						{
							OFFSET 0.000000 6.156120 0.000000
						}
					}
				}
			}
		}
	}
	JOINT Pouch
	{
		OFFSET 0.000000 4.394501 10.847300
		CHANNELS 3 Xrotation Yrotation Zrotation
		End Site
		{
			OFFSET 0.000000 21.880577 0.000000
		}
	}
	JOINT Bag
	{
		OFFSET -13.229000 4.813004 -0.593300
		CHANNELS 3 Xrotation Yrotation Zrotation
		End Site
		{
			OFFSET 0.000000 21.880577 0.000000
		}
	}
	JOINT OccupyGuyFacialAnim_Joint
	{
		OFFSET 1.000000 -70.206398 -1.655000
		CHANNELS 3 Xrotation Yrotation Zrotation
		End Site
		{
			OFFSET 0.000000 21.880577 0.000000
		}
	}
}
MOTION
Frames: 4
Frame Time: 0.033333
0.101959 62.331947 1.242332 -9.287448 4.938749 -2.282970 0.000001 -0.000000 0.000000 -26.530968 12.270955 14.393432 86.124335 -7.020494 -1.887997 -20.412954 -5.439023 3.126703 -0.000000 0.000000 -0.000000 -0.000000 0.000002 0.000000 -25.693900 -3.521519 8.290692 61.313345 3.850176 -3.564664 -25.488142 3.306127 -4.210684 0.000000 0.000001 0.000000 -0.000001 -0.000000 -0.000000 14.498021 -14.103159 0.688110 12.622003 -2.028680 5.857506 11.685929 -1.574639 8.034982 -6.592981 8.768899 -1.855151 -6.886079 2.586481 1.063424 0.000001 0.000000 -0.000000 0.000001 0.000000 -0.000000 0.000001 0.000000 -0.000000 0.000001 0.000000 -0.000001 0.000001 0.000000 -0.000000 0.000001 0.000000 -0.000001 0.000001 0.000000 -0.000000 0.000001 0.000000 -0.000000 0.000001 0.000000 -0.000000 12.411232 -31.447878 5.258440 -72.343383 -5.774720 -54.191821 -92.653381 20.262157 -73.030090 -29.627069 6.505149 17.595472 0.699113 9.503354 -2.418141 5.975200 12.647518 1.348328 0.000001 0.000001 -0.000001 9.479712 -1.289788 -20.785521 0.709463 2.796305 -28.467168 0.000001 0.000003 0.000002 10.058155 -1.800616 -20.644745 1.774262 4.200387 -45.781959 -0.000001 0.000001 0.000001 1.254239 -0.073737 -17.945788 3.754091 5.463610 -68.965240 0.000000 0.000001 0.000001 -7.938265 1.609048 -6.495725 2.210510 4.583646 -51.475352 0.000002 -0.000004 0.000002 0.000000 0.000000 -0.000002 10.208356 -10.674101 3.905503 -15.282975 62.748456 32.746338 51.469939 133.848704 -61.763823 5.082307 2.297084 -27.899967 13.942487 -4.273661 -5.300396 7.113527 -20.767583 -2.619417 0.000000 0.000000 -0.000000 0.357625 -5.832658 5.175837 0.094368 -0.933784 11.539967 -0.000000 0.000000 -0.000001 3.764122 -12.080516 1.143809 5.714274 -4.535783 103.133398 -0.000000 0.000000 0.000001 -12.155659 -12.623971 9.228281 6.566914 -4.248428 114.232366 0.000000 -0.000001 -0.000001 -17.635745 -10.496822 3.325506 4.993743 -4.644993 94.147922 0.000002 0.000005 -0.000000 0.000000 -0.000000 0.000002 0.000002 0.000000 -0.000000 0.000003 0.000002 -0.000001 0.000002 0.000000 -0.000000 0.000002 0.000000 -0.000000 0.000002 0.000000 -0.000000 0.000003 0.000002 -0.000000 0.000002 0.000000 -0.000000 0.000002 0.000000 -0.000000 0.000002 0.000000 -0.000000 0.000003 0.000002 -0.000000 0.000001 -0.000000 0.000000 0.000001 -0.000000 0.000000 0.000001 -0.000000 0.000000 
-3.462634 61.625381 -2.514585 -9.376624 6.715242 -1.757999 -0.000000 0.000000 0.000000 -17.502122 12.895619 7.557502 85.230994 -6.223835 -3.035843 -25.254298 -4.682540 5.635616 -0.000000 -0.000002 0.000001 -0.000001 -0.000002 -0.000000 -30.069956 -4.749868 11.416669 60.916476 1.195458 -3.788082 -20.495455 2.272899 -5.851216 -0.000000 -0.000000 0.000000 0.000001 -0.000000 -0.000001 14.654565 -14.517371 0.323463 12.538626 -2.006847 5.856137 11.605337 -1.541131 8.031822 -6.176869 8.483620 -2.012241 -6.943220 1.722889 1.425105 -0.000000 -0.000000 0.000000 -0.000000 -0.000000 0.000000 -0.000000 -0.000000 0.000000 -0.000000 -0.000000 0.000000 -0.000000 -0.000000 0.000000 -0.000000 -0.000000 0.000000 -0.000000 -0.000000 0.000000 -0.000000 -0.000000 0.000000 -0.000000 -0.000000 0.000000 12.848197 -32.636146 6.084423 -72.842765 -6.110426 -54.410055 -93.102698 19.660104 -72.107120 -29.585497 7.203191 17.702575 0.699114 9.503351 -2.418142 5.975202 12.647521 1.348328 -0.000001 0.000001 -0.000001 9.479712 -1.289800 -20.785524 0.709465 2.796304 -28.467170 0.000003 0.000001 0.000003 10.058155 -1.800618 -20.644747 1.774260 4.200388 -45.781955 -0.000001 -0.000002 0.000000 1.254241 -0.073737 -17.945789 3.754086 5.463616 -68.965240 -0.000003 0.000002 0.000000 -7.938263 1.609047 -6.495725 2.210509 4.583637 -51.475352 -0.000003 0.000001 -0.000001 0.000002 -0.000000 -0.000000 10.348448 -11.615392 4.096431 -13.403933 62.875429 31.008516 50.240396 133.223031 -61.167165 4.295144 3.181745 -28.797126 13.942489 -4.273661 -5.300394 7.113527 -20.767585 -2.619417 0.000000 -0.000001 0.000000 0.357624 -5.832660 5.175840 0.094369 -0.933785 11.539966 -0.000001 -0.000000 0.000000 3.764121 -12.080518 1.143808 5.714274 -4.535783 103.133391 0.000001 -0.000000 -0.000001 -12.155663 -12.623972 9.228281 6.566914 -4.248427 114.232366 0.000001 -0.000000 -0.000001 -17.635752 -10.496823 3.325504 4.993739 -4.644994 94.147929 -0.000001 0.000004 -0.000001 -0.000001 0.000002 -0.000000 0.000001 0.000001 -0.000002 0.000001 0.000001 -0.000002 0.000001 0.000001 -0.000001 0.000001 0.000001 -0.000001 0.000001 0.000001 -0.000002 0.000001 0.000001 -0.000002 0.000001 0.000001 -0.000001 0.000001 0.000001 -0.000001 0.000001 0.000001 -0.000002 0.000001 0.000001 -0.000002 -0.000000 0.000000 0.000000 -0.000000 0.000000 0.000000 -0.000000 0.000000 0.000000 
-6.974174 60.835495 -6.462535 -9.444925 8.688284 -1.183200 0.000001 -0.000000 0.000000 -7.377739 12.900139 0.739068 81.855535 -8.075282 -4.174626 -27.144288 -3.609385 8.878818 0.000001 -0.000000 0.000000 -0.000002 0.000001 -0.000002 -34.023484 -5.959033 13.850908 58.793087 -1.177018 -3.999661 -14.430480 1.186727 -7.332146 -0.000000 0.000001 0.000000 0.000002 0.000000 -0.000003 14.660245 -14.992880 -0.160316 12.354431 -2.014734 5.881082 11.425580 -1.522329 8.063979 -5.708764 8.133828 -2.345485 -7.305025 0.492716 2.095648 0.000001 -0.000000 -0.000000 0.000001 -0.000000 -0.000000 0.000001 -0.000000 0.000000 0.000001 -0.000000 0.000000 0.000001 0.000000 -0.000000 0.000001 -0.000000 0.000000 0.000001 0.000000 -0.000000 0.000001 -0.000000 -0.000000 0.000001 -0.000000 -0.000000 13.584274 -33.850756 7.325230 -73.468711 -6.010111 -54.216116 -93.624429 21.427296 -70.958405 -27.758676 7.627545 17.595868 0.699113 9.503348 -2.418140 5.975202 12.647518 1.348328 0.000001 -0.000001 -0.000001 9.479714 -1.289801 -20.785521 0.709465 2.796304 -28.467170 0.000001 0.000003 -0.000001 10.058156 -1.800618 -20.644745 1.774260 4.200393 -45.781955 0.000002 -0.000001 0.000002 1.254242 -0.073734 -17.945789 3.754089 5.463616 -68.965240 -0.000001 0.000002 0.000001 -7.938262 1.609046 -6.495728 2.210514 4.583635 -51.475348 -0.000001 -0.000003 0.000002 -0.000000 0.000001 -0.000002 10.629943 -12.933881 4.438788 -11.598992 63.444685 29.391834 48.539576 132.243609 -60.379371 3.030399 3.732275 -29.656002 13.942488 -4.273662 -5.300394 7.113530 -20.767581 -2.619420 -0.000001 -0.000001 0.000002 0.357625 -5.832658 5.175839 0.094369 -0.933785 11.539966 -0.000000 -0.000001 0.000000 3.764123 -12.080515 1.143805 5.714273 -4.535785 103.133398 0.000001 0.000000 -0.000001 -12.155662 -12.623971 9.228279 6.566911 -4.248429 114.232359 0.000001 0.000002 -0.000001 -17.635750 -10.496823 3.325504 4.993742 -4.644994 94.147929 0.000001 0.000001 -0.000001 -0.000000 -0.000000 -0.000002 -0.000001 0.000001 -0.000001 -0.000001 -0.000001 -0.000001 -0.000001 0.000001 -0.000001 -0.000001 0.000001 -0.000001 -0.000001 0.000001 -0.000001 -0.000001 -0.000001 -0.000000 -0.000001 0.000001 -0.000001 -0.000001 0.000001 -0.000001 -0.000001 0.000001 -0.000001 -0.000001 -0.000001 -0.000000 0.000001 -0.000000 0.000000 0.000001 -0.000000 0.000000 0.000001 -0.000000 0.000000 
-10.234460 60.055260 -10.223141 -9.497195 10.688338 -0.593993 -0.000000 0.000000 0.000000 2.563789 11.995147 -5.030202 76.057148 -13.754061 -5.299288 -26.251646 -0.058057 10.179445 -0.000000 -0.000001 -0.000003 0.000000 0.000000 -0.000001 -37.010712 -6.998771 15.435259 55.046045 -2.903847 -4.148159 -7.887909 0.123559 -8.775075 0.000000 -0.000001 0.000000 0.000001 0.000000 0.000001 14.472491 -15.489489 -0.677556 12.227013 -2.040340 5.901498 11.300959 -1.532215 8.075837 -5.270434 7.788942 -2.810804 -7.505395 -0.836271 2.865503 -0.000001 -0.000001 -0.000000 -0.000001 -0.000001 -0.000000 -0.000001 -0.000001 -0.000000 -0.000001 -0.000001 -0.000000 -0.000001 0.000000 -0.000000 -0.000001 -0.000001 -0.000000 -0.000001 0.000000 -0.000000 -0.000001 -0.000001 -0.000000 -0.000001 -0.000001 -0.000000 14.482713 -34.734275 8.732256 -73.684518 -6.556188 -54.354123 -93.952449 19.499777 -70.459760 -29.725694 8.166719 17.845056 0.699114 9.503359 -2.418138 5.975200 12.647514 1.348328 -0.000000 -0.000002 -0.000001 9.479713 -1.289792 -20.785519 0.709463 2.796303 -28.467171 -0.000001 0.000001 -0.000002 10.058155 -1.800605 -20.644744 1.774260 4.200384 -45.781952 0.000003 0.000000 0.000001 1.254241 -0.073732 -17.945786 3.754086 5.463617 -68.965240 -0.000001 -0.000003 0.000001 -7.938266 1.609053 -6.495723 2.210510 4.583639 -51.475355 -0.000002 0.000002 -0.000002 0.000001 0.000000 0.000002 10.975215 -14.259441 4.842199 -12.898931 63.511696 30.505841 50.706679 134.530261 -61.292417 5.440355 3.848557 -30.654702 13.942489 -4.273665 -5.300395 7.113528 -20.767583 -2.619418 -0.000001 0.000000 -0.000000 0.357624 -5.832664 5.175836 0.094367 -0.933783 11.539962 0.000000 0.000001 0.000002 3.764122 -12.080516 1.143805 5.714275 -4.535783 103.133398 0.000001 -0.000000 -0.000001 -12.155665 -12.623971 9.228278 6.566915 -4.248428 114.232366 0.000001 0.000001 0.000001 -17.635750 -10.496823 3.325503 4.993744 -4.644996 94.147929 -0.000000 0.000001 0.000001 0.000000 -0.000000 -0.000001 -0.000001 0.000001 -0.000000 0.000000 0.000001 -0.000001 -0.000001 0.000001 -0.000000 -0.000001 0.000001 -0.000000 -0.000001 0.000001 -0.000000 0.000000 0.000001 -0.000001 -0.000001 0.000001 -0.000000 -0.000001 0.000001 -0.000000 -0.000001 0.000001 -0.000000 0.000000 0.000001 -0.000001 -0.000000 0.000000 0.000000 -0.000000 0.000000 0.000000 -0.000000 0.000000 0.000000 
